#!OML:ASF X:\für Bonn\!DataBase\2005_08_10_Bjorn_Final\c3d\bjorn.ASF
:FULLY-SPECIFIED
:DEGREES
108
root -19.3955 19.3212 -0.245172 1450.48 -79.9642 -11.522
lowerback -6.51413 6.7131 -2.47694
upperback 6.29934 9.79274 -7.6234
thorax 11.479 4.7986 -5.29734
lowerneck -1.60704 -11.6033 3.23195
upperneck 5.09566 -15.9838 5.3897
head 2.09012 -7.83103 0.782088
rclavicle 4.77083e-014 -7.95139e-014
rhumerus 35.9613 -9.07839 -44.6532
rradius 47.8972
rwrist -23.328
rhand -5.32855 9.3552
rfingers 7.12502
rthumb 20.4777 -19.5849
lclavicle 4.77083e-014 -7.95139e-014
lhumerus -27.165 -9.6579 85.9402
lradius 30.4946
lwrist -10.0216
lhand -25.6766 -9.6532
lfingers 7.12502
lthumb 0.858056 20.3248
rfemur -8.88565 -1.59532 16.4913
rtibia 31.1057
rfoot -18.3951 15.636
rtoes -14.0861
lfemur -12.798 5.28519 -17.591
ltibia 30.95
lfoot -7.99827 -15.6284
ltoes -0.256558
109
root -19.4374 19.327 -0.248564 1450.34 -79.7036 -11.3204
lowerback -6.6279 6.70324 -2.48234
upperback 6.28322 9.79326 -7.67695
thorax 11.5405 4.80012 -5.34201
lowerneck -1.61187 -11.6483 3.27002
upperneck 5.20015 -16.0581 5.44172
head 2.12849 -7.86327 0.786071
rclavicle 1.01778e-013 -7.31528e-014
rhumerus 35.5053 -8.25838 -43.3836
rradius 47.424
rwrist -23.9354
rhand -3.55641 9.15263
rfingers 7.12502
rthumb 22.1799 -19.5949
lclavicle 1.01778e-013 -7.31528e-014
lhumerus -27.351 -9.4955 85.8563
lradius 30.3625
lwrist -9.54716
lhand -25.5077 -9.40826
lfingers 7.12502
lthumb 1.02126 20.569
rfemur -8.99352 -1.54898 16.4775
rtibia 31.1111
rfoot -18.1734 15.7885
rtoes -13.6663
lfemur -12.698 5.25182 -17.545
ltibia 30.8422
lfoot -7.97287 -15.8175
ltoes -0.143155
110
root -19.4784 19.333 -0.253595 1450.2 -79.4359 -11.1434
lowerback -6.72515 6.69641 -2.50392
upperback 6.27729 9.79743 -7.70873
thorax 11.5963 4.80106 -5.35474
lowerneck -1.62342 -11.6988 3.27365
upperneck 5.32379 -16.1402 5.491
head 2.17728 -7.89901 0.792718
rclavicle 1.02573e-013 1.27222e-014
rhumerus 35.0418 -7.4284 -42.118
rradius 47.0497
rwrist -24.5653
rhand -1.93007 8.88657
rfingers 7.12502
rthumb 23.7405 -19.667
lclavicle 1.02573e-013 1.27222e-014
lhumerus -27.5238 -9.31391 85.779
lradius 30.2407
lwrist -8.92774
lhand -25.2717 -9.1374
lfingers 7.12502
lthumb 1.24913 20.8387
rfemur -9.07344 -1.46542 16.474
rtibia 31.1559
rfoot -17.9172 15.8958
rtoes -12.9496
lfemur -12.5607 5.23384 -17.4854
ltibia 30.703
lfoot -7.93162 -16.0365
ltoes 0.0517021
111
root -19.5186 19.3394 -0.258905 1450.06 -79.1788 -10.9747
lowerback -6.79516 6.68344 -2.52098
upperback 6.25206 9.78992 -7.75729
thorax 11.6167 4.79801 -5.39377
lowerneck -1.58566 -11.7342 3.36758
upperneck 5.40328 -16.1966 5.50284
head 2.19113 -7.92393 0.781152
rclavicle -5.24792e-014 -1.90833e-014
rhumerus 34.6383 -6.58423 -40.9842
rradius 46.6416
rwrist -25.148
rhand -0.488497 8.70673
rfingers 7.12502
rthumb 25.1224 -19.6604
lclavicle -5.24792e-014 -1.90833e-014
lhumerus -27.7216 -9.02651 85.6054
lradius 30.1542
lwrist -8.18064
lhand -25.0136 -8.9433
lfingers 7.12502
lthumb 1.49846 21.0312
rfemur -9.13924 -1.37075 16.4648
rtibia 31.2329
rfoot -17.6598 15.9993
rtoes -12.3484
lfemur -12.4022 5.22258 -17.4247
ltibia 30.5534
lfoot -7.89108 -16.2537
ltoes 0.252384
112
root -19.5562 19.3444 -0.26433 1449.81 -78.9133 -10.6973
lowerback -6.87044 6.6679 -2.55104
upperback 6.24248 9.78146 -7.79738
thorax 11.654 4.79277 -5.41583
lowerneck -1.55784 -11.7631 3.41898
upperneck 5.4651 -16.244 5.54107
head 2.20694 -7.94477 0.783593
rclavicle -5.88403e-014 -1.59028e-014
rhumerus 34.2184 -5.70999 -39.8021
rradius 46.3498
rwrist -25.7764
rhand 0.74627 8.4059
rfingers 7.12502
rthumb 26.305 -19.7902
lclavicle -5.88403e-014 -1.59028e-014
lhumerus -27.8602 -8.46357 85.3707
lradius 30.0721
lwrist -7.64951
lhand -24.6547 -8.75414
lfingers 7.12502
lthumb 1.84501 21.2176
rfemur -9.17422 -1.34432 16.4276
rtibia 31.3288
rfoot -17.4608 16.1498
rtoes -11.8789
lfemur -12.2675 5.18184 -17.3898
ltibia 30.4122
lfoot -7.82977 -16.442
ltoes 0.470465
113
root -19.5938 19.3464 -0.272147 1449.71 -78.6582 -10.5664
lowerback -6.96232 6.65331 -2.58273
upperback 6.21476 9.77382 -7.82506
thorax 11.6775 4.7872 -5.42165
lowerneck -1.46452 -11.7943 3.47507
upperneck 5.49266 -16.2868 5.56398
head 2.19804 -7.96612 0.786668
rclavicle 6.36111e-014 -3.49861e-014
rhumerus 33.7766 -4.80431 -38.6779
rradius 46.1861
rwrist -26.5012
rhand 1.90738 7.97442
rfingers 7.12502
rthumb 27.416 -20.0508
lclavicle 6.36111e-014 -3.49861e-014
lhumerus -28.0072 -7.70808 85.0542
lradius 29.9972
lwrist -7.2918
lhand -24.3471 -8.54077
lfingers 7.12502
lthumb 2.14217 21.4282
rfemur -9.16445 -1.25347 16.4233
rtibia 31.4283
rfoot -17.2409 16.2902
rtoes -11.1297
lfemur -12.1499 5.14884 -17.3199
ltibia 30.2952
lfoot -7.79149 -16.636
ltoes 0.671713
114
root -19.6298 19.3482 -0.279563 1449.37 -78.3856 -10.2143
lowerback -7.03453 6.6289 -2.6576
upperback 6.21278 9.75669 -7.84085
thorax 11.7073 4.77261 -5.39421
lowerneck -1.38121 -11.8167 3.54815
upperneck 5.51398 -16.3144 5.54103
head 2.18256 -7.98029 0.773821
rclavicle 7.95139e-014 -6.99722e-014
rhumerus 33.3546 -3.90618 -37.5434
rradius 46.0954
rwrist -27.2177
rhand 3.00342 7.49982
rfingers 7.12502
rthumb 28.4638 -20.3549
lclavicle 7.95139e-014 -6.99722e-014
lhumerus -28.1522 -6.96615 84.7586
lradius 29.9447
lwrist -6.87033
lhand -24.2647 -8.31246
lfingers 7.12502
lthumb 2.22169 21.6557
rfemur -9.09501 -1.24082 16.3664
rtibia 31.5349
rfoot -17.0872 16.4103
rtoes -10.7931
lfemur -12.0183 5.0873 -17.2937
ltibia 30.192
lfoot -7.74058 -16.8478
ltoes 0.93004
115
root -19.6641 19.3511 -0.288326 1449.26 -78.1179 -10.0923
lowerback -7.09776 6.60792 -2.6938
upperback 6.19316 9.73763 -7.84683
thorax 11.7159 4.76043 -5.37845
lowerneck -1.29273 -11.8347 3.64441
upperneck 5.5321 -16.3344 5.496
head 2.16083 -7.99096 0.751944
rclavicle 1.00983e-013 -6.04305e-014
rhumerus 32.9238 -3.0429 -36.5108
rradius 46.0591
rwrist -27.9116
rhand 4.04312 6.99259
rfingers 7.12502
rthumb 29.4569 -20.6917
lclavicle 1.00983e-013 -6.04305e-014
lhumerus -28.3232 -6.37186 84.4714
lradius 29.9107
lwrist -6.34408
lhand -24.3551 -8.00299
lfingers 7.12502
lthumb 2.13436 21.9661
rfemur -9.02642 -1.12481 16.3674
rtibia 31.6437
rfoot -16.9168 16.5095
rtoes -10.1446
lfemur -11.9104 5.08827 -17.2179
ltibia 30.0993
lfoot -7.68913 -17.085
ltoes 1.10526
116
root -19.698 19.3533 -0.298143 1448.99 -77.8682 -9.80229
lowerback -7.19996 6.58482 -2.77571
upperback 6.19765 9.72539 -7.84527
thorax 11.767 4.74631 -5.32401
lowerneck -1.18059 -11.8472 3.69881
upperneck 5.50606 -16.3424 5.47765
head 2.12648 -7.99775 0.747357
rclavicle 5.00937e-014 0
rhumerus 32.5628 -2.23923 -35.5587
rradius 46.0445
rwrist -28.5256
rhand 4.95008 6.54843
rfingers 7.12502
rthumb 30.3224 -20.98
lclavicle 5.00937e-014 0
lhumerus -28.4776 -5.70526 84.1886
lradius 29.8949
lwrist -5.85931
lhand -24.5065 -7.76374
lfingers 7.12502
lthumb 1.98819 22.2067
rfemur -8.95107 -1.01736 16.3222
rtibia 31.7599
rfoot -16.7474 16.6185
rtoes -9.69737
lfemur -11.7916 5.01036 -17.1822
ltibia 29.9988
lfoot -7.64878 -17.2545
ltoes 1.39664
117
root -19.7292 19.355 -0.307495 1448.79 -77.5883 -9.58973
lowerback -7.26436 6.56351 -2.82131
upperback 6.18258 9.70703 -7.84253
thorax 11.7781 4.73321 -5.29318
lowerneck -1.05802 -11.8702 3.77657
upperneck 5.49021 -16.3617 5.41557
head 2.0876 -8.0104 0.726795
rclavicle 2.78299e-014 -4.77083e-014
rhumerus 32.1667 -1.4578 -34.664
rradius 46.0511
rwrist -29.0958
rhand 5.72199 6.28132
rfingers 7.12502
rthumb 31.0584 -21.109
lclavicle 2.78299e-014 -4.77083e-014
lhumerus -28.6513 -5.13129 83.9068
lradius 29.8482
lwrist -5.54441
lhand -24.7127 -7.50659
lfingers 7.12502
lthumb 1.78909 22.4657
rfemur -8.85845 -0.968894 16.2907
rtibia 31.8677
rfoot -16.5502 16.7904
rtoes -9.15178
lfemur -11.6971 4.98266 -17.1242
ltibia 29.9055
lfoot -7.5763 -17.4811
ltoes 1.60391
118
root -19.7594 19.3565 -0.318334 1448.5 -77.306 -9.29229
lowerback -7.32537 6.54483 -2.87837
upperback 6.17694 9.69485 -7.85515
thorax 11.8001 4.72265 -5.2723
lowerneck -0.936653 -11.8809 3.86128
upperneck 5.48014 -16.3697 5.40704
head 2.05547 -8.0162 0.720996
rclavicle 1.59028e-015 -1.90833e-014
rhumerus 31.7841 -0.803522 -33.9245
rradius 46.0851
rwrist -29.5681
rhand 6.44745 6.09745
rfingers 7.12502
rthumb 31.7496 -21.1584
lclavicle 1.59028e-015 -1.90833e-014
lhumerus -28.8496 -4.65617 83.6188
lradius 29.8396
lwrist -5.2607
lhand -24.9372 -7.25347
lfingers 7.12502
lthumb 1.5722 22.7205
rfemur -8.74327 -0.849676 16.2492
rtibia 31.9815
rfoot -16.4454 16.8942
rtoes -8.7545
lfemur -11.5856 4.87733 -17.0819
ltibia 29.8086
lfoot -7.51838 -17.6822
ltoes 1.88472
119
root -19.7887 19.3571 -0.328747 1448.23 -77.0456 -9.02134
lowerback -7.3948 6.51977 -2.94635
upperback 6.18045 9.67493 -7.83963
thorax 11.8289 4.70586 -5.21476
lowerneck -0.850945 -11.8921 3.87471
upperneck 5.47181 -16.3763 5.37644
head 2.03396 -8.02176 0.716183
rclavicle 6.12257e-014 -2.22639e-014
rhumerus 31.4712 -0.240617 -33.324
rradius 46.104
rwrist -29.8834
rhand 7.12261 5.98023
rfingers 7.12502
rthumb 32.3924 -21.1462
lclavicle 6.12257e-014 -2.22639e-014
lhumerus -29.0214 -4.13791 83.3632
lradius 29.7721
lwrist -5.23205
lhand -25.1419 -6.97317
lfingers 7.12502
lthumb 1.37448 23.0021
rfemur -8.61197 -0.763813 16.2002
rtibia 32.0836
rfoot -16.2515 17.0823
rtoes -8.15763
lfemur -11.4729 4.82557 -17.0453
ltibia 29.7198
lfoot -7.53059 -17.902
ltoes 1.73298
